<?xml version="1.0" encoding="utf-8"?>
<COLLADA xmlns="http://www.collada.org/2005/11/COLLADASchema" version="1.4.1">
  <asset><unit name="meter" meter="1"/><up_axis>Z_UP</up_axis></asset>
  <library_geometries>
    <geometry id="stems-mesh" name="stems">
      <mesh>
        <source id="stems-mesh-positions">
          <float_array id="stems-mesh-positions-array" count="3846">-0.004883 0.002385 1.095505 -0.002512 0.000779 1.094535 -0.003763 -0.001504 1.094660 -0.006907 -0.001309 1.095708 -0.007599 0.001094 1.096230 -0.003731 0.002358 1.097876 -0.001368 0.000811 1.096910 -0.002619 -0.001471 1.097036 -0.005726 -0.001252 1.098107 -0.006436 0.001099 1.098601 -0.003321 0.002325 1.098736 -0.000952 0.000829 1.097783 -0.002207 -0.001438 1.097909 -0.005338 -0.001241 1.098947 -0.006021 0.001074 1.099457 -0.005155 0.001021 1.095576 -0.003472 0.001933 1.098466 -0.004414 0.000490 1.095261 -0.001683 0.000746 1.097599 -0.002923 -0.000219 1.098699 -0.002718 -0.001002 1.097645 -0.004727 -0.000224 1.096620 -0.005162 -0.000887 1.098495 -0.006021 0.000587 1.095803 -0.005660 0.000965 1.098969 -0.006907 0.001996 1.099749 -0.005200 0.002052 1.103398 -0.002499 0.003304 1.102677 -0.004210 0.003254 1.099007 -0.002355 -0.002450 1.098172 -0.000823 -0.002327 1.101417 -0.003937 -0.002126 1.102435 -0.005384 -0.002224 1.099394 -0.006668 -0.001460 1.099589 -0.005035 -0.001371 1.103118 -0.005719 0.000944 1.103627 -0.007426 0.000887 1.099978 -0.002832 0.003171 1.098276 -0.001122 0.003220 1.101946 0.001247 0.001725 1.100993 -0.000474 0.001624 1.097300 -0.000079 0.000430 1.097093 0.001667 0.000532 1.100842 0.000412 -0.001736 1.100968 -0.001326 -0.001852 1.097228 -0.006459 0.002587 1.101800 -0.003961 0.002693 1.107157 -0.001261 0.003944 1.106437 -0.003762 0.003845 1.101059 -0.001400 -0.003012 1.100390 0.000779 -0.002832 1.106364 -0.002019 -0.002695 1.106870 -0.004337 -0.002795 1.101841 -0.006645 -0.001558 1.101553 -0.004007 -0.001405 1.107255 -0.004690 0.000910 1.107764 -0.007404 0.000790 1.101942 -0.001568 0.003709 1.099809 0.001193 0.003831 1.106045 0.003136 0.002335 1.105117 0.000790 0.002162 1.098833 0.001757 0.000255 1.099271 0.006618 -0.000898 1.103858 0.005510 -0.003165 1.104289 0.000509 -0.002027 1.099403 -0.001820 0.005380 1.111882 -0.001833 0.005443 1.111976 -0.002137 0.005302 1.112057 -0.002124 0.005240 1.111963 0.001951 -0.003924 1.110744 0.001985 -0.003995 1.110843 0.002386 -0.004043 1.110725 0.002342 -0.003977 1.110622 -0.003051 -0.000686 1.111605 -0.003095 -0.000700 1.111715 -0.003002 -0.000982 1.111665 -0.002955 -0.000962 1.111563 0.004774 0.004392 1.108178 0.004895 0.004449 1.108224 0.004680 0.004618 1.108401 0.004561 0.004560 1.108355 0.007652 -0.002166 1.106829 0.007984 -0.002290 1.106683 0.008092 -0.002034 1.106591 0.007760 -0.001911 1.106736 0.002865 0.002444 1.118005 0.003611 0.001912 1.117703 0.002525 0.001116 1.116436 0.001754 0.001187 1.117025 0.002001 0.002010 1.118236 0.003672 0.002033 1.117575 0.002585 0.001237 1.116309 0.002865 0.002444 1.118005 0.003611 0.001912 1.117703 0.002525 0.001116 1.116436 0.001754 0.001187 1.117025 0.002001 0.002010 1.118236 0.009583 0.022028 1.124062 0.010329 0.021497 1.123759 0.009243 0.020701 1.122493 0.008472 0.020772 1.123082 0.008718 0.021594 1.124293 -0.067348 0.030085 1.155240 -0.112455 0.026822 1.156884 -0.067482 0.027503 1.155643 -0.112222 0.024881 1.156905 -0.067495 0.026143 1.154077 -0.112235 0.023858 1.156009 -0.067370 0.027884 1.152707 -0.112477 0.025167 1.154979 -0.067189 0.030321 1.153426 -0.112704 0.026994 1.155502 -0.041552 0.028919 1.156905 -0.041686 0.026338 1.156905 -0.041699 0.024978 1.156204 -0.041574 0.026719 1.154834 -0.041393 0.029155 1.155553 -0.032479 0.027697 1.156905 -0.032613 0.025115 1.156905 -0.032626 0.023755 1.156905 -0.032501 0.025496 1.155696 -0.032321 0.027933 1.156415 -0.029646 0.027476 1.156905 -0.029780 0.024894 1.156905 -0.029794 0.023534 1.156905 -0.029668 0.025275 1.155941 -0.029488 0.027711 1.156660 -0.008252 0.025963 1.147031 -0.008674 0.023412 1.147431 -0.008708 0.022043 1.145874 -0.008307 0.023747 1.144510 -0.007937 0.026161 1.145232 0.008832 0.019802 1.132688 0.009288 0.017251 1.133050 0.007750 0.015882 1.133301 0.006344 0.017586 1.133096 0.007007 0.020000 1.132627 0.010846 0.025384 1.125476 0.011302 0.022833 1.125838 0.009764 0.021464 1.126089 0.008358 0.023169 1.125884 0.009021 0.025582 1.125415 0.010728 0.023037 1.101404 0.011184 0.020486 1.101766 0.009647 0.019117 1.102018 0.008241 0.020821 1.101812 0.008904 0.023235 1.101344 0.010865 0.017557 1.056928 0.011320 0.015006 1.057290 0.009783 0.013637 1.057542 0.008377 0.015341 1.057336 0.009040 0.017755 1.056868 -0.026725 0.023796 1.010457 -0.026270 0.021245 1.010819 -0.027807 0.019876 1.011071 -0.029213 0.021580 1.010865 -0.028550 0.023994 1.010397 -0.031328 0.020347 0.943020 -0.030872 0.017796 0.943381 -0.032409 0.016426 0.943633 -0.033815 0.018131 0.943427 -0.033153 0.020545 0.942959 -0.033029 0.022206 0.900933 -0.032573 0.019655 0.901295 -0.034110 0.018286 0.901547 -0.035516 0.019990 0.901341 -0.034854 0.022404 0.900873 -0.033704 0.018315 0.874068 -0.033248 0.015764 0.874430 -0.034785 0.014395 0.874682 -0.036191 0.016099 0.874476 -0.035529 0.018513 0.874008 -0.025867 0.020978 0.854110 -0.025871 0.020956 0.854106 -0.026058 0.020828 0.854131 -0.026106 0.020983 0.854114 -0.026155 0.020974 0.854105 -0.009045 0.039703 1.094141 -0.007334 0.038038 1.092287 -0.008669 0.035840 1.092715 -0.011205 0.036147 1.094835 -0.011438 0.038534 1.095716 -0.007136 0.039384 1.095932 -0.005426 0.037779 1.094087 -0.006760 0.035583 1.094517 -0.009251 0.035909 1.096647 -0.009515 0.038247 1.097505 -0.006453 0.039247 1.096583 -0.004728 0.037690 1.094752 -0.006064 0.035509 1.095184 -0.008592 0.035818 1.097289 -0.008829 0.038118 1.098150 -0.009401 0.038359 1.094223 -0.006726 0.038892 1.096362 -0.008873 0.037810 1.093631 -0.005481 0.037673 1.094838 -0.006336 0.036696 1.096250 -0.006592 0.036000 1.095148 -0.008750 0.036999 1.094965 -0.008555 0.036199 1.096827 -0.010168 0.037965 1.094719 -0.008675 0.038029 1.097559 -0.009463 0.039066 1.098797 -0.006577 0.038679 1.101583 -0.004201 0.039808 1.100015 -0.007097 0.040205 1.097212 -0.006205 0.034489 1.095420 -0.003618 0.034216 1.097896 -0.006137 0.034530 1.099978 -0.008569 0.034804 1.097663 -0.009623 0.035630 1.098352 -0.006846 0.035291 1.101055 -0.007083 0.037591 1.101916 -0.009969 0.037978 1.099131 -0.006082 0.040097 1.096030 -0.003187 0.039701 1.098833 -0.001461 0.038144 1.097002 -0.004379 0.038492 1.094178 -0.004197 0.037298 1.093770 -0.001236 0.036944 1.096637 -0.002572 0.034763 1.097069 -0.005524 0.035101 1.094207 -0.008264 0.039438 1.100582 -0.004033 0.038893 1.104675 -0.001658 0.040023 1.103108 -0.005898 0.040577 1.098996 -0.004584 0.033666 1.097107 -0.000242 0.033176 1.101370 -0.002836 0.033436 1.103380 -0.006782 0.033946 1.099528 -0.008916 0.035354 1.100166 -0.004428 0.034815 1.104533 -0.004665 0.037114 1.105394 -0.009262 0.037702 1.100944 -0.004312 0.040409 1.097035 0.000528 0.039785 1.101730 0.002254 0.038228 1.099899 -0.002609 0.038804 1.095183 -0.001734 0.036806 1.095126 0.003007 0.036239 1.099863 0.001670 0.034058 1.100295 -0.003064 0.034609 1.095560 -0.000728 0.038955 1.107581 -0.000701 0.039010 1.107678 -0.000968 0.038883 1.107854 -0.000996 0.038828 1.107758 0.001767 0.033265 1.105374 0.001824 0.033181 1.105485 0.002130 0.033117 1.105274 0.002068 0.033196 1.105160 -0.000728 0.035637 1.107098 -0.000718 0.035614 1.107235 -0.000699 0.035336 1.107110 -0.000704 0.035365 1.106977 0.004234 0.038512 1.102718 0.004358 0.038556 1.102758 0.004164 0.038731 1.102964 0.004040 0.038687 1.102924 0.003900 0.035056 1.103201 0.004002 0.035021 1.103199 0.004153 0.035266 1.103150 0.004051 0.035302 1.103152 0.006134 0.037211 1.112299 0.006672 0.036661 1.111716 0.005137 0.036057 1.110880 0.004636 0.036125 1.111710 0.005371 0.036817 1.112799 0.005698 0.023143 1.121755 0.006235 0.022593 1.121173 0.004700 0.021989 1.120337 0.004199 0.022057 1.121167 0.004934 0.022749 1.122256 -0.016599 0.037079 1.001026 -0.014121 0.035769 0.999894 -0.015378 0.033621 0.999118 -0.018632 0.033604 0.999772 -0.019387 0.035741 1.000951 -0.015770 0.036246 1.003386 -0.013300 0.034991 1.002275 -0.014556 0.032844 1.001502 -0.017778 0.032840 1.002189 -0.018547 0.034938 1.003322 -0.015477 0.035922 1.004234 -0.013003 0.034711 1.003153 -0.014263 0.032578 1.002383 -0.017504 0.032565 1.003029 -0.018248 0.034623 1.004169 -0.016877 0.035777 1.000619 -0.015591 0.035644 1.003835 -0.016102 0.035343 1.000245 -0.013703 0.034722 1.002861 -0.015077 0.033509 1.003427 -0.014735 0.033097 1.002212 -0.016591 0.034246 1.001250 -0.017270 0.033037 1.002741 -0.017766 0.035331 1.000584 -0.017826 0.034660 1.003721 -0.019165 0.035440 1.004630 -0.017929 0.034266 1.008263 -0.015158 0.035565 1.008327 -0.016393 0.036753 1.004677 -0.014445 0.031542 1.002284 -0.013354 0.030555 1.005560 -0.016575 0.030553 1.006191 -0.017608 0.031494 1.003126 -0.018907 0.032209 1.003394 -0.017754 0.031095 1.006938 -0.018498 0.033153 1.008078 -0.019710 0.034339 1.004423 -0.014931 0.036850 1.004136 -0.013720 0.035650 1.007808 -0.011246 0.034438 1.006727 -0.012465 0.035598 1.003015 -0.012046 0.034516 1.002485 -0.010809 0.033339 1.006253 -0.011952 0.031217 1.006091 -0.013300 0.032366 1.001720 -0.018991 0.035324 1.006801 -0.017197 0.033617 1.012151 -0.014426 0.034917 1.012216 -0.016219 0.036637 1.006849 -0.013790 0.030260 1.004303 -0.012418 0.028428 1.010238 -0.015258 0.028514 1.010407 -0.016893 0.030126 1.005368 -0.019143 0.031488 1.005208 -0.017280 0.029696 1.010937 -0.018024 0.031753 1.012077 -0.019946 0.033617 1.006236 -0.013881 0.036815 1.005906 -0.011966 0.034818 1.012140 -0.009917 0.033616 1.011029 -0.011414 0.035562 1.004785 -0.010513 0.033576 1.004702 -0.006300 0.030811 1.009240 -0.007337 0.028585 1.009382 -0.011768 0.031427 1.003933 -0.015640 0.036383 1.018167 -0.015665 0.036412 1.018274 -0.015977 0.036266 1.018266 -0.015952 0.036237 1.018159 -0.011834 0.025942 1.014141 -0.011813 0.025842 1.014215 -0.011400 0.025818 1.014140 -0.011430 0.025914 1.014059 -0.018120 0.028340 1.015504 -0.018203 0.028274 1.015638 -0.018061 0.027904 1.015456 -0.017974 0.027977 1.015335 -0.007112 0.036383 1.013974 -0.006997 0.036418 1.014050 -0.007234 0.036529 1.014245 -0.007346 0.036495 1.014168 -0.002823 0.030071 1.009472 -0.002474 0.029987 1.009337 -0.002405 0.030249 1.009088 -0.002753 0.030333 1.009223 -0.011885 0.029608 1.023123 -0.011105 0.029171 1.022761 -0.012016 0.028868 1.021180 -0.012857 0.028780 1.021660 -0.012773 0.029161 1.023092 -0.013056 0.021694 1.025563 -0.012276 0.021257 1.025201 -0.013187 0.020954 1.023621 -0.014028 0.020866 1.024100 -0.013944 0.021247 1.025532 -0.001820 0.037683 1.049354 0.000601 0.036799 1.047772 -0.000597 0.034733 1.046727 -0.003758 0.034340 1.047662 -0.004513 0.036163 1.049286 -0.000697 0.036505 1.051429 0.001713 0.035671 1.049880 0.000516 0.033606 1.048836 -0.002609 0.033223 1.049804 -0.003381 0.035014 1.051377 -0.000298 0.036058 1.052170 0.002118 0.035262 1.050658 0.000916 0.033210 1.049621 -0.002232 0.032824 1.050549 -0.002977 0.034576 1.052118 -0.002060 0.036458 1.048737 -0.000436 0.035849 1.051738 -0.001302 0.036161 1.048218 0.001391 0.035271 1.050440 0.000161 0.033870 1.050892 0.000398 0.033712 1.049595 -0.001615 0.034866 1.049041 -0.002059 0.033357 1.050335 -0.002918 0.035956 1.048700 -0.002606 0.034727 1.051648 -0.003888 0.035221 1.052806 -0.002208 0.033512 1.056025 0.000471 0.034995 1.056077 -0.001212 0.036720 1.052844 0.000789 0.032198 1.049347 0.002276 0.030726 1.052265 -0.000855 0.030354 1.053178 -0.002260 0.031748 1.050452 -0.003564 0.032297 1.050969 -0.001979 0.030657 1.054119 -0.002724 0.032409 1.055688 -0.004383 0.034136 1.052447 0.000176 0.037028 1.052198 0.001838 0.035285 1.055453 0.004254 0.034489 1.053941 0.002583 0.036199 1.050640 0.003009 0.035268 1.049880 0.004705 0.033532 1.053231 0.003683 0.031390 1.052779 0.001815 0.033199 1.048844 -0.003480 0.034729 1.054892 -0.001033 0.032232 1.059639 0.001646 0.033715 1.059691 -0.000804 0.036228 1.054930 0.001728 0.030628 1.051021 0.003827 0.027869 1.056354 0.001020 0.027698 1.056798 -0.001231 0.030059 1.052323 -0.003564 0.031244 1.052629 -0.001003 0.028601 1.057724 -0.001747 0.030353 1.059293 -0.004383 0.033082 1.054108 0.001408 0.036758 1.053826 0.004086 0.033827 1.059371 0.006075 0.033012 1.057871 0.003814 0.035928 1.052268 0.004821 0.034068 1.051731 0.009649 0.030872 1.055262 0.008770 0.028581 1.055079 0.003626 0.032000 1.050692 0.000977 0.033981 1.065897 0.000962 0.033989 1.066009 0.000660 0.033822 1.066003 0.000675 0.033814 1.065891 0.004968 0.024775 1.059652 0.005003 0.024665 1.059703 0.005406 0.024687 1.059587 0.005362 0.024794 1.059529 -0.001274 0.026380 1.062013 -0.001339 0.026285 1.062139 -0.001194 0.025967 1.061879 -0.001125 0.026067 1.061766 0.009001 0.035415 1.061012 0.009120 0.035445 1.061082 0.008899 0.035500 1.061315 0.008782 0.035471 1.061243 0.013170 0.030381 1.055031 0.013507 0.030351 1.054850 0.013533 0.030658 1.054650 0.013197 0.030688 1.054830 0.005638 0.026743 1.069128 0.006401 0.026441 1.068620 0.005350 0.026358 1.067101 0.004570 0.026118 1.067631 0.004781 0.026239 1.069095 0.007793 0.021070 1.073973 0.008556 0.020768 1.073465 0.007505 0.020685 1.071947 0.006725 0.020445 1.072476 0.006937 0.020567 1.073941 -0.040013 0.008093 0.990134 -0.038184 0.006487 0.988341 -0.039295 0.004204 0.988929 -0.041811 0.004399 0.991086 -0.042255 0.006802 0.991831 -0.038051 0.008066 0.991896 -0.036228 0.006519 0.990108 -0.037339 0.004237 0.990698 -0.039812 0.004456 0.992862 -0.040283 0.006807 0.993588 -0.037347 0.008033 0.992537 -0.035513 0.006537 0.990760 -0.036628 0.004270 0.991351 -0.039135 0.004467 0.993494 -0.039575 0.006782 0.994223 -0.040238 0.006729 0.990303 -0.037589 0.007641 0.992344 -0.039671 0.006198 0.989732 -0.036260 0.006454 0.990865 -0.036992 0.005489 0.992352 -0.037200 0.004706 0.991299 -0.039447 0.005484 0.991108 -0.039143 0.004821 0.993009 -0.040955 0.006295 0.990840 -0.039425 0.006673 0.993635 -0.040285 0.007704 0.994828 -0.037318 0.007765 0.997529 -0.035090 0.009016 0.995842 -0.038067 0.008962 0.993123 -0.036666 0.003258 0.991650 -0.034022 0.003381 0.994076 -0.036521 0.003582 0.996195 -0.039009 0.003484 0.993925 -0.040124 0.004247 0.994590 -0.037280 0.004337 0.997241 -0.037721 0.006652 0.997971 -0.040680 0.006595 0.995237 -0.037068 0.008879 0.991926 -0.034099 0.008928 0.994679 -0.032265 0.007433 0.992902 -0.035253 0.007332 0.990132 -0.034965 0.006138 0.989791 -0.031933 0.006240 0.992603 -0.032661 0.004178 0.993632 -0.036069 0.003856 0.990387 -0.039096 0.008295 0.996559 -0.034752 0.008406 1.000543 -0.032523 0.009657 0.998856 -0.036878 0.009553 0.994854 -0.034944 0.002695 0.993343 -0.030670 0.002876 0.998052 -0.033071 0.003013 0.999577 -0.037115 0.002913 0.995796 -0.039362 0.004150 0.996400 -0.034766 0.004302 1.000684 -0.035206 0.006618 1.001414 -0.039917 0.006498 0.997047 -0.035319 0.009417 0.992869 -0.030408 0.009538 0.997600 -0.028959 0.008043 0.996008 -0.033503 0.007870 0.991075 -0.032442 0.005963 0.991115 -0.026210 0.004810 0.993527 -0.026687 0.002749 0.994783 -0.033549 0.003681 0.991709 -0.031017 0.012965 1.003938 -0.030993 0.013027 1.004030 -0.031244 0.012886 1.004220 -0.031268 0.012824 1.004127 -0.027932 0.001784 1.001666 -0.027863 0.001713 1.001744 -0.027536 0.001665 1.001484 -0.027615 0.001731 1.001405 -0.033132 0.004493 1.005234 -0.033131 0.004473 1.005404 -0.033034 0.004065 1.005287 -0.033027 0.004095 1.005125 -0.025583 0.011611 0.996260 -0.025453 0.011669 0.996256 -0.025586 0.011838 0.996502 -0.025713 0.011780 0.996504 -0.022963 0.004185 0.992200 -0.022711 0.004062 0.991939 -0.022810 0.004230 0.991627 -0.023062 0.004353 0.991887 -0.024344 0.008152 1.008044 -0.023767 0.007620 1.007482 -0.025251 0.006824 1.006720 -0.025742 0.006895 1.007556 -0.025057 0.007718 1.008585 -0.020142 0.010570 1.015638 -0.019566 0.010039 1.015076 -0.021050 0.009243 1.014314 -0.021541 0.009313 1.015150 -0.020856 0.010136 1.016179 -0.017049 0.019745 1.018008 -0.016472 0.018512 1.017446 -0.017956 0.017716 1.016683 -0.018447 0.018488 1.017520 -0.017762 0.019311 1.018548 -0.000695 -0.000028 1.045819 0.001531 -0.001634 1.044552 0.000307 -0.003917 1.044837 -0.002676 -0.003723 1.046281 -0.003296 -0.001319 1.046887 0.000753 -0.000056 1.048023 0.002971 -0.001602 1.046760 0.001747 -0.003884 1.047047 -0.001197 -0.003665 1.048508 -0.001837 -0.001314 1.049089 0.001270 -0.000088 1.048823 0.003496 -0.001584 1.047573 0.002268 -0.003851 1.047860 -0.000703 -0.003654 1.049291 -0.001316 -0.001339 1.049884 -0.000955 -0.001392 1.045925 0.001085 -0.000480 1.048574 -0.000261 -0.001923 1.045517 0.002747 -0.001667 1.047484 0.001660 -0.002632 1.048734 0.001727 -0.003415 1.047663 -0.000396 -0.002637 1.046905 -0.000587 -0.003301 1.048821 -0.001785 -0.001826 1.046261 -0.001020 -0.001449 1.049354 -0.002157 -0.000417 1.050288 0.000006 -0.000361 1.053687 0.002592 0.000890 1.052625 0.000423 0.000841 1.049206 0.002155 -0.004863 1.048139 0.004092 -0.004740 1.051160 0.001134 -0.004539 1.052570 -0.000692 -0.004638 1.049741 -0.001940 -0.003874 1.050099 0.000133 -0.003785 1.053388 -0.000479 -0.001469 1.053981 -0.002642 -0.001526 1.050582 0.001695 0.000758 1.048303 0.003863 0.000807 1.051723 0.006090 -0.000689 1.050473 0.003908 -0.000789 1.047032 0.004273 -0.001984 1.046776 0.006487 -0.001882 1.050269 0.005259 -0.004149 1.050555 0.003054 -0.004265 1.047070 -0.001448 0.000174 1.052265 0.001718 0.000280 1.057256 0.004304 0.001531 1.056194 0.001132 0.001432 1.051183 0.003387 -0.005426 1.050216 0.006317 -0.005245 1.055859 0.003607 -0.005109 1.056721 0.000662 -0.005208 1.052033 -0.001665 -0.003972 1.052043 0.001685 -0.003819 1.057359 0.001073 -0.001504 1.057952 -0.002366 -0.001624 1.052527 0.003146 0.001296 1.049661 0.006686 0.001417 1.055490 0.008494 -0.000078 1.054320 0.005359 -0.000251 1.048390 0.006375 -0.002158 1.048700 0.011785 -0.003311 1.052624 0.010742 -0.005578 1.053193 0.005154 -0.004440 1.048992 0.004449 0.002967 1.061666 0.004449 0.003030 1.061761 0.004158 0.002889 1.061881 0.004158 0.002826 1.061785 0.008042 -0.006338 1.060053 0.008089 -0.006409 1.060146 0.008471 -0.006456 1.059978 0.008415 -0.006391 1.059881 0.003193 -0.003100 1.061550 0.003164 -0.003113 1.061664 0.003249 -0.003396 1.061603 0.003283 -0.003375 1.061496 0.010512 0.001978 1.057145 0.010638 0.002036 1.057174 0.010447 0.002205 1.057378 0.010323 0.002147 1.057348 0.013192 -0.004580 1.055436 0.013503 -0.004703 1.055249 0.013598 -0.004448 1.055144 0.013287 -0.004324 1.055331 0.009883 0.000030 1.067136 0.010584 -0.000501 1.066740 0.009344 -0.001297 1.065624 0.008656 -0.001226 1.066307 0.009055 -0.000404 1.067476 0.013204 0.003345 1.072089 0.013905 0.002814 1.071693 0.012665 0.002018 1.070577 0.011976 0.002088 1.071261 0.012376 0.002911 1.072430 0.008337 0.020561 1.080621 0.009038 0.020029 1.080225 0.007797 0.019233 1.079109 0.007109 0.019304 1.079792 0.007509 0.020127 1.080961 -0.041071 0.008661 0.949881 -0.038896 0.007055 0.948527 -0.040109 0.004772 0.948860 -0.043033 0.004967 0.950420 -0.043628 0.007370 0.951050 -0.039538 0.008634 0.952026 -0.037371 0.007087 0.950677 -0.038582 0.004805 0.951012 -0.041467 0.005024 0.952588 -0.042084 0.007375 0.953193 -0.038990 0.008601 0.952805 -0.036814 0.007105 0.951469 -0.038030 0.004838 0.951803 -0.040943 0.005035 0.953351 -0.041531 0.007350 0.953967 -0.041327 0.007297 0.949997 -0.039184 0.008209 0.952564 -0.040649 0.006766 0.949562 -0.037566 0.007023 0.951409 -0.038603 0.006057 0.952701 -0.038578 0.005274 0.951628 -0.040730 0.006052 0.950954 -0.040845 0.005389 0.952876 -0.042143 0.006863 0.950365 -0.041257 0.007241 0.953426 -0.042356 0.008272 0.954404 -0.040061 0.008328 0.957715 -0.037519 0.009580 0.956553 -0.039821 0.009530 0.953221 -0.038132 0.003826 0.952087 -0.036078 0.003949 0.955030 -0.038978 0.004150 0.956555 -0.040914 0.004052 0.953799 -0.042147 0.004816 0.954206 -0.039946 0.004905 0.957412 -0.040534 0.007220 0.958028 -0.042829 0.007163 0.954717 -0.038585 0.009447 0.952269 -0.036284 0.009497 0.955601 -0.034109 0.008001 0.954265 -0.036424 0.007900 0.950912 -0.036069 0.006706 0.950642 -0.033719 0.006808 0.954045 -0.034935 0.004540 0.954379 -0.037275 0.004424 0.950984 -0.041570 0.008863 0.956351 -0.038210 0.008969 0.961214 -0.035669 0.010220 0.960052 -0.039035 0.010121 0.955169 -0.036819 0.003264 0.954114 -0.033670 0.003444 0.959638 -0.036344 0.003581 0.960605 -0.039471 0.003481 0.956036 -0.041795 0.004718 0.956138 -0.038239 0.004871 0.961318 -0.038827 0.007186 0.961935 -0.042478 0.007066 0.956649 -0.037082 0.009985 0.953569 -0.033316 0.010107 0.959254 -0.031555 0.008611 0.958014 -0.034921 0.008438 0.952212 -0.033894 0.006531 0.952482 -0.028333 0.005378 0.956190 -0.029353 0.003111 0.956800 -0.035102 0.004250 0.952821 -0.035308 0.011656 0.965513 -0.035305 0.011719 0.965608 -0.035591 0.011578 0.965739 -0.035594 0.011516 0.965644 -0.031781 0.002352 0.963760 -0.031730 0.002281 0.963851 -0.031356 0.002233 0.963668 -0.031416 0.002299 0.963574 -0.036568 0.005590 0.965447 -0.036593 0.005576 0.965562 -0.036510 0.005294 0.965498 -0.036480 0.005314 0.965389 -0.029428 0.010668 0.960758 -0.029301 0.010726 0.960782 -0.029483 0.010894 0.960993 -0.029608 0.010836 0.960967 -0.026817 0.004110 0.958945 -0.026514 0.003986 0.958745 -0.026423 0.004242 0.958636 -0.026726 0.004365 0.958836 -0.029290 0.007027 0.963314 -0.028605 0.006496 0.962890 -0.029778 0.005740 0.961900 -0.031709 0.004781 0.961034 -0.030103 0.006593 0.963686 -0.025747 0.010502 0.972328 -0.023099 0.012750 0.970989 -0.024394 0.011504 0.970846 -0.024693 0.010083 0.970736 -0.024597 0.011442 0.971693 -0.027340 0.021467 0.978493 -0.024083 0.018457 0.977751 -0.024886 0.018672 0.977596 -0.027752 0.018907 0.977052 -0.026364 0.019485 0.979716 -0.028893 0.020457 0.979775 -0.028517 0.020342 0.978976 -0.029222 0.019558 0.979789 -0.029584 0.019596 0.980179 -0.029340 0.020059 0.980793 -0.038427 0.041825 0.913225 -0.036252 0.040564 0.911546 -0.037465 0.038264 0.911359 -0.040389 0.038104 0.912923 -0.040984 0.040305 0.914076 -0.036894 0.041318 0.915310 -0.034727 0.040113 0.913649 -0.035938 0.037814 0.913463 -0.038823 0.037674 0.915049 -0.039440 0.039830 0.916166 -0.036346 0.041112 0.916062 -0.034170 0.039953 0.914424 -0.035386 0.037668 0.914242 -0.038299 0.037514 0.915795 -0.038887 0.039632 0.916914 -0.038683 0.040470 0.913033 -0.036540 0.040784 0.915739 -0.038005 0.040050 0.912490 -0.034922 0.039886 0.914348 -0.035959 0.038655 0.915391 -0.035934 0.038133 0.914170 -0.038086 0.039042 0.913687 -0.038201 0.037965 0.915411 -0.039499 0.039965 0.913295 -0.038613 0.039647 0.916362 -0.039712 0.040433 0.917546 -0.037417 0.039745 0.920786 -0.034876 0.041225 0.919934 -0.037177 0.041924 0.916676 -0.035488 0.036619 0.914292 -0.033434 0.036079 0.917187 -0.036334 0.035934 0.918719 -0.038270 0.036455 0.916012 -0.039503 0.037108 0.916579 -0.037302 0.036477 0.919723 -0.037890 0.038595 0.920843 -0.040185 0.039282 0.917603 -0.035941 0.042056 0.915729 -0.033640 0.041358 0.918987 -0.031465 0.040199 0.917350 -0.033780 0.040853 0.914060 -0.033425 0.039749 0.913529 -0.031075 0.039086 0.916868 -0.032291 0.036801 0.916686 -0.034631 0.037449 0.913351 -0.038926 0.040572 0.919577 -0.035566 0.039586 0.924340 -0.033025 0.041066 0.923487 -0.036391 0.042063 0.918706 -0.034175 0.035616 0.916141 -0.031026 0.034555 0.921565 -0.033700 0.034471 0.922539 -0.036827 0.035397 0.918064 -0.039151 0.036580 0.918440 -0.035595 0.035568 0.923523 -0.036183 0.037686 0.924642 -0.039834 0.038754 0.919464 -0.034438 0.042289 0.917117 -0.030672 0.041133 0.922684 -0.028911 0.039954 0.921140 -0.032277 0.041086 0.915448 -0.031250 0.039167 0.915283 -0.025689 0.037212 0.918638 -0.026709 0.034866 0.918725 -0.032458 0.036867 0.915102 -0.032664 0.041241 0.929132 -0.032661 0.041281 0.929238 -0.032947 0.041114 0.929334 -0.032950 0.041075 0.929228 -0.029137 0.032566 0.925338 -0.029087 0.032476 0.925411 -0.028712 0.032471 0.925222 -0.028772 0.032556 0.925145 -0.033924 0.035344 0.927708 -0.033949 0.035305 0.927817 -0.033866 0.035044 0.927691 -0.033836 0.035088 0.927589 -0.026784 0.041343 0.924275 -0.026657 0.041394 0.924312 -0.026839 0.041511 0.924556 -0.026964 0.041461 0.924518 -0.024173 0.035358 0.921039 -0.023870 0.035283 0.920817 -0.023779 0.035556 0.920768 -0.024082 0.035632 0.920990 -0.026573 0.035158 0.928456 -0.025888 0.034735 0.927924 -0.027171 0.034198 0.926706 -0.027832 0.034108 0.927414 -0.027387 0.034651 0.928721 -0.028925 0.025520 0.933814 -0.028240 0.025097 0.933283 -0.029524 0.024560 0.932065 -0.030185 0.024470 0.932773 -0.029739 0.025014 0.934080 -0.033312 0.020826 0.931832 -0.032627 0.020403 0.931300 -0.033910 0.019867 0.930082 -0.034571 0.019776 0.930790 -0.034125 0.020320 0.932097 -0.038817 0.002900 0.912888 -0.036541 0.001294 0.911711 -0.037776 -0.000989 0.911947 -0.040815 -0.000795 0.913270 -0.041458 0.001609 0.913851 -0.037458 0.002872 0.915148 -0.035191 0.001326 0.913975 -0.036425 -0.000956 0.914212 -0.039425 -0.000737 0.915555 -0.040089 0.001614 0.916110 -0.036974 0.002840 0.915967 -0.034699 0.001344 0.914808 -0.035938 -0.000924 0.915045 -0.038964 -0.000726 0.916357 -0.039599 0.001589 0.916925 -0.039081 0.001536 0.912983 -0.037148 0.002448 0.915712 -0.038371 0.001005 0.912604 -0.035444 0.001261 0.914689 -0.036580 0.000296 0.915895 -0.036470 -0.000487 0.914827 -0.038562 0.000291 0.913985 -0.038829 -0.000373 0.915891 -0.039924 0.001102 0.913286 -0.039282 0.001479 0.916407 -0.040456 0.002511 0.917295 -0.038430 0.002567 0.920778 -0.035805 0.003818 0.919820 -0.037835 0.003769 0.916317 -0.036062 -0.001935 0.915320 -0.034247 -0.001812 0.918416 -0.037259 -0.001611 0.919706 -0.038970 -0.001710 0.916806 -0.040232 -0.000946 0.917114 -0.038292 -0.000857 0.920484 -0.038927 0.001458 0.921052 -0.040952 0.001402 0.917569 -0.036528 0.003686 0.915466 -0.034498 0.003735 0.918969 -0.032223 0.002239 0.917809 -0.034266 0.002139 0.914284 -0.033891 0.000944 0.914042 -0.031818 0.001046 0.917621 -0.033057 -0.001221 0.917858 -0.035120 -0.001337 0.914288 -0.039827 0.003102 0.919298 -0.036863 0.003208 0.924412 -0.034237 0.004459 0.923455 -0.037206 0.004360 0.918320 -0.034913 -0.002498 0.917444 -0.031893 -0.002317 0.922747 -0.034954 -0.002181 0.923953 -0.037710 -0.002281 0.919151 -0.040034 -0.001044 0.919068 -0.036900 -0.000891 0.924514 -0.037535 0.001424 0.925082 -0.040755 0.001304 0.919523 -0.035132 0.004224 0.916881 -0.031744 0.004345 0.922743 -0.029470 0.002849 0.921583 -0.032870 0.002677 0.915699 -0.031868 0.000770 0.916049 -0.028591 0.000942 0.921920 -0.029830 -0.001326 0.922158 -0.033100 -0.001512 0.916292 -0.034503 0.003758 0.928087 -0.034507 0.003820 0.928182 -0.034803 0.003679 0.928290 -0.034798 0.003617 0.928195 -0.031081 -0.001796 0.927122 -0.031050 -0.001867 0.927251 -0.030694 -0.001914 0.927137 -0.030728 -0.001849 0.927004 -0.034123 0.000431 0.927903 -0.034149 0.000418 0.928039 -0.034076 0.000135 0.927948 -0.034047 0.000156 0.927816 -0.028372 0.003489 0.924798 -0.028267 0.003547 0.924867 -0.028523 0.003716 0.924997 -0.028628 0.003658 0.924928 -0.028569 0.000053 0.925462 -0.028468 0.000028 0.925491 -0.028328 0.000283 0.925464 -0.028429 0.000309 0.925436 -0.030685 0.002399 0.927912 -0.029969 0.001868 0.927544 -0.031164 0.001072 0.926380 -0.031879 0.001143 0.927035 -0.031526 0.001966 0.928219 -0.027969 0.004644 0.932815 -0.027252 0.004113 0.932447 -0.028447 0.003317 0.931282 -0.029162 0.003387 0.931938 -0.028810 0.004210 0.933122 -0.026034 0.005124 0.936012 -0.025339 0.004609 0.935655 -0.026498 0.003837 0.934525 -0.027192 0.003905 0.935161 -0.026850 0.004704 0.936310 -0.022932 0.007663 0.940250 -0.022237 0.007147 0.939894 -0.023397 0.006375 0.938764 -0.024090 0.006444 0.939399 -0.023748 0.007242 0.940548 -0.032297 0.019097 0.944028 -0.031602 0.018582 0.943671 -0.032761 0.017810 0.942541 -0.033455 0.017878 0.943177 -0.033113 0.018677 0.944326 -0.030254 0.039617 0.866886 -0.027734 0.037994 0.866491 -0.028855 0.036293 0.864865 -0.032068 0.036865 0.864256 -0.032932 0.038919 0.865505 -0.030562 0.038295 0.869147 -0.028051 0.036724 0.868780 -0.029173 0.035024 0.867156 -0.032367 0.035597 0.866592 -0.033231 0.037623 0.867786 -0.030681 0.037798 0.869952 -0.028172 0.036264 0.869623 -0.029297 0.034578 0.868003 -0.032493 0.035152 0.867394 -0.033343 0.037133 0.868594 -0.030521 0.038475 0.866135 -0.030662 0.037611 0.869489 -0.029727 0.037947 0.865989 -0.028688 0.036465 0.869104 -0.030325 0.035498 0.868850 -0.029585 0.035203 0.867787 -0.030723 0.036844 0.866482 -0.032101 0.035601 0.867321 -0.031373 0.038236 0.865680 -0.032776 0.037145 0.868352 -0.034247 0.038049 0.868850 -0.034744 0.036128 0.872338 -0.032082 0.036794 0.873696 -0.031575 0.038730 0.870194 -0.029563 0.033629 0.867624 -0.030023 0.031971 0.870777 -0.033194 0.032554 0.870162 -0.032773 0.034124 0.867212 -0.033959 0.035049 0.867132 -0.034487 0.033217 0.870522 -0.035337 0.035198 0.871722 -0.034808 0.037129 0.868225 -0.030021 0.038595 0.870263 -0.030559 0.036649 0.873773 -0.028051 0.035114 0.873444 -0.027509 0.037029 0.869887 -0.027064 0.035972 0.869328 -0.027615 0.034029 0.872939 -0.028875 0.032240 0.871915 -0.028187 0.034267 0.867713 -0.034976 0.037586 0.870853 -0.035728 0.034784 0.875985 -0.033066 0.035450 0.877343 -0.032304 0.038267 0.872198 -0.029955 0.031959 0.869416 -0.031340 0.029040 0.874895 -0.033970 0.029695 0.874022 -0.033211 0.032327 0.869209 -0.034999 0.034139 0.868530 -0.035852 0.031186 0.874013 -0.036702 0.033166 0.875213 -0.035847 0.036218 0.869624 -0.029783 0.038084 0.872244 -0.030820 0.034849 0.878158 -0.028683 0.033418 0.877648 -0.027271 0.036518 0.871868 -0.026692 0.034420 0.871695 -0.025072 0.030205 0.876755 -0.026373 0.028250 0.876023 -0.027815 0.032717 0.870076 -0.036350 0.036261 0.882595 -0.036412 0.036279 0.882689 -0.036712 0.036204 0.882536 -0.036650 0.036186 0.882443 -0.032716 0.025949 0.878106 -0.032740 0.025837 0.878159 -0.032339 0.025738 0.878237 -0.032320 0.025850 0.878174 -0.038629 0.029390 0.877543 -0.038767 0.029324 0.877620 -0.038616 0.028963 0.877428 -0.038479 0.029033 0.877366 -0.026944 0.035078 0.881939 -0.026866 0.035076 0.882058 -0.027143 0.035206 0.882170 -0.027218 0.035207 0.882052 -0.022116 0.028726 0.878085 -0.021758 0.028592 0.878073 -0.021560 0.028866 0.877930 -0.021918 0.029001 0.877942 -0.029838 0.028990 0.881793 -0.029046 0.028455 0.881658 -0.029278 0.028583 0.879828 -0.030245 0.028604 0.879933 -0.030690 0.028747 0.881342 -0.029873 0.026024 0.886530 -0.029081 0.025490 0.886395 -0.029313 0.025617 0.884565 -0.030280 0.025639 0.884670 -0.030725 0.025782 0.886079 -0.032195 0.021362 0.891323 -0.031501 0.020819 0.891178 -0.031636 0.020955 0.889358 -0.032612 0.020976 0.889463 -0.033402 0.021095 0.890860 -0.034408 0.020424 0.892381 -0.033616 0.019889 0.892246 -0.033849 0.020017 0.890416 -0.034815 0.020038 0.890521 -0.035261 0.020182 0.891930 -0.027358 0.001923 0.869759 -0.024503 0.002870 0.870060 -0.023731 0.000743 0.871353 -0.026109 -0.001519 0.871852 -0.028351 -0.000790 0.870867 -0.027924 0.003475 0.871814 -0.025114 0.004446 0.872083 -0.024343 0.002320 0.873377 -0.026729 0.000106 0.873884 -0.028931 0.000788 0.872904 -0.028117 0.004021 0.872571 -0.025345 0.005024 0.872823 -0.024586 0.002902 0.874108 -0.026953 0.000650 0.874599 -0.029125 0.001340 0.873654 -0.026636 0.001048 0.870567 -0.027801 0.003635 0.872559 -0.025718 0.001327 0.870668 -0.025594 0.004327 0.872660 -0.026190 0.003101 0.874010 -0.025020 0.002622 0.873604 -0.026108 0.001064 0.872162 -0.026862 0.000854 0.874042 -0.026936 0.000171 0.870929 -0.028606 0.001464 0.873344 -0.030370 0.001125 0.873302 -0.031341 0.003508 0.876403 -0.030333 0.006189 0.875320 -0.029358 0.003802 0.872198 -0.024128 0.002351 0.874884 -0.025032 0.004518 0.877601 -0.027383 0.002276 0.878075 -0.026553 0.000245 0.875518 -0.027860 -0.000404 0.875143 -0.028832 0.001902 0.878121 -0.031004 0.002592 0.877176 -0.030033 0.000209 0.874076 -0.028179 0.004724 0.871754 -0.029153 0.007112 0.874876 -0.026381 0.008115 0.875128 -0.025366 0.005689 0.872015 -0.024251 0.005382 0.872552 -0.025281 0.007845 0.875712 -0.024522 0.005723 0.876997 -0.023482 0.003262 0.873853 -0.031567 0.002311 0.874689 -0.033012 0.005813 0.879227 -0.032004 0.008494 0.878144 -0.030555 0.004988 0.873584 -0.024366 0.003439 0.877100 -0.025938 0.007060 0.881757 -0.028223 0.004729 0.882191 -0.026852 0.001464 0.877933 -0.028785 0.000068 0.876813 -0.030361 0.003798 0.881620 -0.032533 0.004488 0.880675 -0.030959 0.000681 0.875745 -0.028631 0.006433 0.872810 -0.030292 0.010439 0.878011 -0.027520 0.011443 0.878263 -0.025818 0.007397 0.873071 -0.024247 0.007385 0.874586 -0.026002 0.011322 0.879749 -0.025243 0.009200 0.881034 -0.023477 0.005262 0.875884 -0.034250 0.008758 0.882255 -0.034347 0.008801 0.882296 -0.034460 0.008500 0.882418 -0.034364 0.008456 0.882377 -0.028318 0.008795 0.885134 -0.028327 0.008809 0.885283 -0.028055 0.009070 0.885271 -0.028041 0.009049 0.885121 -0.031747 0.007424 0.884044 -0.031827 0.007420 0.884158 -0.031552 0.007328 0.884255 -0.031477 0.007339 0.884141 -0.029190 0.013271 0.880675 -0.029214 0.013401 0.880714 -0.029526 0.013288 0.880686 -0.029502 0.013158 0.880647 -0.027373 0.011544 0.883126 -0.027322 0.011623 0.883179 -0.027407 0.011862 0.883034 -0.027459 0.011783 0.882981 -0.034665 0.014154 0.888820 -0.033751 0.014440 0.888931 -0.033167 0.012822 0.888255 -0.033935 0.012363 0.888637 -0.034966 0.013279 0.889186 -0.034104 0.017618 0.889709 -0.033190 0.017904 0.889821 -0.032606 0.016286 0.889144 -0.033374 0.015828 0.889526 -0.034405 0.016744 0.890075 -0.036486 0.041270 0.952668 -0.034312 0.039665 0.951314 -0.035524 0.037381 0.951648 -0.038448 0.037576 0.953207 -0.039043 0.039980 0.953838 -0.034953 0.041243 0.954813 -0.032786 0.039697 0.953464 -0.033998 0.037415 0.953799 -0.036882 0.037633 0.955375 -0.037499 0.039984 0.955981 -0.034405 0.041210 0.955592 -0.032230 0.039715 0.954256 -0.033446 0.037447 0.954591 -0.036358 0.037644 0.956138 -0.036947 0.039959 0.956755 -0.036742 0.039907 0.952784 -0.034599 0.040818 0.955351 -0.036065 0.039375 0.952349 -0.032981 0.039632 0.954196 -0.034019 0.038666 0.955489 -0.033993 0.037884 0.954416 -0.036145 0.038661 0.953741 -0.036261 0.037998 0.955663 -0.037559 0.039473 0.953152 -0.036672 0.039850 0.956213 -0.037771 0.040881 0.957191 -0.035476 0.040938 0.960503 -0.032935 0.042189 0.959340 -0.035236 0.042139 0.956008 -0.033548 0.036435 0.954874 -0.031493 0.036558 0.957817 -0.034393 0.036759 0.959342 -0.036329 0.036661 0.956587 -0.037562 0.037425 0.956993 -0.035361 0.037514 0.960199 -0.035950 0.039829 0.960816 -0.038244 0.039773 0.957504 -0.034001 0.042056 0.955056 -0.031700 0.042106 0.958388 -0.029524 0.040610 0.957052 -0.031839 0.040510 0.953699 -0.031484 0.039315 0.953429 -0.029135 0.039417 0.956832 -0.030351 0.037150 0.957167 -0.032691 0.037033 0.953771 -0.036986 0.041472 0.959139 -0.033625 0.041579 0.964002 -0.031084 0.042830 0.962839 -0.034450 0.042730 0.957956 -0.032234 0.035873 0.956901 -0.029085 0.036054 0.962425 -0.031759 0.036190 0.963392 -0.034887 0.036090 0.958824 -0.037211 0.037327 0.958926 -0.033654 0.037480 0.964105 -0.034243 0.039795 0.964722 -0.037893 0.039675 0.959436 -0.032497 0.042594 0.956357 -0.028731 0.042716 0.962041 -0.026971 0.041220 0.960801 -0.030336 0.041048 0.954999 -0.029309 0.039141 0.955269 -0.023749 0.037988 0.958977 -0.024769 0.035720 0.959587 -0.030518 0.036859 0.955608 -0.030723 0.044266 0.968300 -0.030720 0.044328 0.968396 -0.031006 0.044187 0.968526 -0.031010 0.044125 0.968431 -0.027197 0.034961 0.966547 -0.027146 0.034890 0.966639 -0.026771 0.034842 0.966456 -0.026831 0.034908 0.966361 -0.031983 0.038199 0.968234 -0.032008 0.038186 0.968349 -0.031925 0.037903 0.968285 -0.031896 0.037924 0.968176 -0.024843 0.043277 0.963545 -0.024716 0.043335 0.963569 -0.024898 0.043503 0.963780 -0.025023 0.043445 0.963755 -0.022232 0.036719 0.961732 -0.021929 0.036596 0.961533 -0.021838 0.036851 0.961424 -0.022141 0.036974 0.961623 -0.024357 0.038544 0.967747 -0.023672 0.038013 0.967324 -0.024955 0.037217 0.966258 -0.025616 0.037288 0.966967 -0.025170 0.038110 0.968120 -0.020975 0.030011 0.973954 -0.020290 0.029480 0.973531 -0.021574 0.028683 0.972464 -0.022235 0.028754 0.973174 -0.021789 0.029577 0.974326 -0.020975 0.030011 0.973954 -0.020290 0.029480 0.973531 -0.021574 0.028683 0.972464 -0.022235 0.028754 0.973174 -0.021789 0.029577 0.974326 -0.030279 0.023202 0.972681 -0.029594 0.022671 0.972258 -0.030877 0.021874 0.971191 -0.031538 0.021945 0.971901 -0.031093 0.022768 0.973054</float_array>
          <technique_common><accessor source="#stems-mesh-positions-array" count="1282" stride="3">
            <param name="X" type="float"/><param name="Y" type="float"/><param name="Z" type="float"/>
          </accessor></technique_common>
        </source>
        <vertices id="stems-mesh-vertices">
          <input semantic="POSITION" source="#stems-mesh-positions"/>
        </vertices>
        <triangles count="2426">
          <input semantic="VERTEX" source="#stems-mesh-vertices" offset="0"/>
          <p>4 9 5 4 5 0 3 8 9 3 9 4 2 7 8 2 8 3 1 6 7 1 7 2 0 5 6 0 6 1 19 17 86 19 86 87 13 12 20 13 20 22 14 13 22 14 22 24 11 10 16 11 16 18 12 11 18 12 18 20 15 17 18 15 18 16 17 19 20 17 20 18 19 21 22 19 22 20 21 23 24 21 24 22 23 15 16 23 16 24 10 14 24 10 24 16 14 26 25 14 25 9 10 27 26 10 26 14 5 28 27 5 27 10 9 25 28 9 28 5 12 30 29 12 29 7 13 31 30 13 30 12 8 32 31 8 31 13 7 29 32 7 32 8 13 34 33 13 33 8 14 35 34 14 34 13 9 36 35 9 35 14 8 33 36 8 36 9 10 38 37 10 37 5 11 39 38 11 38 10 6 40 39 6 39 11 5 37 40 5 40 6 11 42 41 11 41 6 12 43 42 12 42 11 7 44 43 7 43 12 6 41 44 6 44 7 45 46 47 45 47 48 26 46 45 26 45 25 28 48 47 28 47 27 25 45 48 25 48 28 49 50 51 49 51 52 30 50 49 30 49 29 32 52 51 32 51 31 29 49 52 29 52 32 53 54 55 53 55 56 34 54 53 34 53 33 36 56 55 36 55 35 33 53 56 33 56 36 57 58 59 57 59 60 38 58 57 38 57 37 40 60 59 40 59 39 37 57 60 37 60 40 61 62 63 61 63 64 42 62 61 42 61 41 44 64 63 44 63 43 41 61 64 41 64 44 65 66 67 65 67 68 47 66 65 47 65 27 46 67 66 46 66 47 26 68 67 26 67 46 27 65 68 27 68 26 69 70 71 69 71 72 51 70 69 51 69 31 50 71 70 50 70 51 30 72 71 30 71 50 31 69 72 31 72 30 73 74 75 73 75 76 55 74 73 55 73 35 54 75 74 54 74 55 34 76 75 34 75 54 35 73 76 35 76 34 77 78 79 77 79 80 59 78 77 59 77 39 58 79 78 58 78 59 38 80 79 38 79 58 39 77 80 39 80 38 81 82 83 81 83 84 63 82 81 63 81 43 62 83 82 62 82 63 42 84 83 42 83 62 43 81 84 43 84 42 15 23 89 15 89 85 21 19 87 21 87 88 17 15 85 17 85 86 23 21 88 23 88 89 87 86 90 87 90 91 89 88 95 89 95 96 86 87 94 86 94 93 85 89 96 85 96 92 88 87 94 88 94 95 86 85 92 86 92 93 96 95 100 96 100 101 93 94 99 93 99 98 92 96 101 92 101 97 95 94 99 95 99 100 93 92 97 93 97 98 102 103 105 102 105 104 104 105 107 104 107 106 106 107 109 106 109 108 108 109 111 108 111 110 110 111 103 110 103 102 108 110 116 108 116 115 116 112 117 116 117 121 104 106 114 104 114 113 110 102 112 110 112 116 102 104 113 102 113 112 106 108 115 106 115 114 117 118 123 117 123 122 114 115 120 114 120 119 112 113 118 112 118 117 115 116 121 115 121 120 113 114 119 113 119 118 123 124 129 123 129 128 120 121 126 120 126 125 118 119 124 118 124 123 121 117 122 121 122 126 119 120 125 119 125 124 127 128 133 127 133 132 126 122 127 126 127 131 124 125 130 124 130 129 122 123 128 122 128 127 125 126 131 125 131 130 136 132 137 136 137 141 130 131 136 130 136 135 128 129 134 128 134 133 131 127 132 131 132 136 129 130 135 129 135 134 141 137 142 141 142 146 134 135 140 134 140 139 132 133 138 132 138 137 135 136 141 135 141 140 133 134 139 133 139 138 145 146 151 145 151 150 139 140 145 139 145 144 137 138 143 137 143 142 140 141 146 140 146 145 138 139 144 138 144 143 151 147 152 151 152 156 143 144 149 143 149 148 146 142 147 146 147 151 144 145 150 144 150 149 142 143 148 142 148 147 152 153 158 152 158 157 149 150 155 149 155 154 147 148 153 147 153 152 150 151 156 150 156 155 148 149 154 148 154 153 158 159 164 158 164 163 155 156 161 155 161 160 153 154 159 153 159 158 156 152 157 156 157 161 154 155 160 154 160 159 164 165 170 164 170 169 161 157 162 161 162 166 159 160 165 159 165 164 157 158 163 157 163 162 160 161 166 160 166 165 170 171 176 170 176 175 162 163 168 162 168 167 165 166 171 165 171 170 163 164 169 163 169 168 166 162 167 166 167 171 168 169 174 168 174 173 171 167 172 171 172 176 169 170 175 169 175 174 167 168 173 167 173 172 181 186 182 181 182 177 180 185 186 180 186 181 179 184 185 179 185 180 178 183 184 178 184 179 177 182 183 177 183 178 196 194 263 196 263 264 190 189 197 190 197 199 191 190 199 191 199 201 188 187 193 188 193 195 189 188 195 189 195 197 192 194 195 192 195 193 194 196 197 194 197 195 196 198 199 196 199 197 198 200 201 198 201 199 200 192 193 200 193 201 187 191 201 187 201 193 191 203 202 191 202 186 187 204 203 187 203 191 182 205 204 182 204 187 186 202 205 186 205 182 189 207 206 189 206 184 190 208 207 190 207 189 185 209 208 185 208 190 184 206 209 184 209 185 190 211 210 190 210 185 191 212 211 191 211 190 186 213 212 186 212 191 185 210 213 185 213 186 187 215 214 187 214 182 188 216 215 188 215 187 183 217 216 183 216 188 182 214 217 182 217 183 188 219 218 188 218 183 189 220 219 189 219 188 184 221 220 184 220 189 183 218 221 183 221 184 222 223 224 222 224 225 203 223 222 203 222 202 205 225 224 205 224 204 202 222 225 202 225 205 226 227 228 226 228 229 207 227 226 207 226 206 209 229 228 209 228 208 206 226 229 206 229 209 230 231 232 230 232 233 211 231 230 211 230 210 213 233 232 213 232 212 210 230 233 210 233 213 234 235 236 234 236 237 215 235 234 215 234 214 217 237 236 217 236 216 214 234 237 214 237 217 238 239 240 238 240 241 219 239 238 219 238 218 221 241 240 221 240 220 218 238 241 218 241 221 242 243 244 242 244 245 224 243 242 224 242 204 223 244 243 223 243 224 203 245 244 203 244 223 204 242 245 204 245 203 246 247 248 246 248 249 228 247 246 228 246 208 227 248 247 227 247 228 207 249 248 207 248 227 208 246 249 208 249 207 250 251 252 250 252 253 232 251 250 232 250 212 231 252 251 231 251 232 211 253 252 211 252 231 212 250 253 212 253 211 254 255 256 254 256 257 236 255 254 236 254 216 235 256 255 235 255 236 215 257 256 215 256 235 216 254 257 216 257 215 258 259 260 258 260 261 240 259 258 240 258 220 239 260 259 239 259 240 219 261 260 219 260 239 220 258 261 220 261 219 192 200 266 192 266 262 198 196 264 198 264 265 194 192 262 194 262 263 200 198 265 200 265 266 262 266 271 262 271 267 265 264 269 265 269 270 263 262 267 263 267 268 266 265 270 266 270 271 264 263 268 264 268 269 276 281 277 276 277 272 275 280 281 275 281 276 274 279 280 274 280 275 273 278 279 273 279 274 272 277 278 272 278 273 291 289 358 291 358 359 285 284 292 285 292 294 286 285 294 286 294 296 283 282 288 283 288 290 284 283 290 284 290 292 287 289 290 287 290 288 289 291 292 289 292 290 291 293 294 291 294 292 293 295 296 293 296 294 295 287 288 295 288 296 282 286 296 282 296 288 286 298 297 286 297 281 282 299 298 282 298 286 277 300 299 277 299 282 281 297 300 281 300 277 284 302 301 284 301 279 285 303 302 285 302 284 280 304 303 280 303 285 279 301 304 279 304 280 285 306 305 285 305 280 286 307 306 286 306 285 281 308 307 281 307 286 280 305 308 280 308 281 282 310 309 282 309 277 283 311 310 283 310 282 278 312 311 278 311 283 277 309 312 277 312 278 283 314 313 283 313 278 284 315 314 284 314 283 279 316 315 279 315 284 278 313 316 278 316 279 317 318 319 317 319 320 298 318 317 298 317 297 300 320 319 300 319 299 297 317 320 297 320 300 321 322 323 321 323 324 302 322 321 302 321 301 304 324 323 304 323 303 301 321 324 301 324 304 325 326 327 325 327 328 306 326 325 306 325 305 308 328 327 308 327 307 305 325 328 305 328 308 329 330 331 329 331 332 310 330 329 310 329 309 312 332 331 312 331 311 309 329 332 309 332 312 333 334 335 333 335 336 314 334 333 314 333 313 316 336 335 316 335 315 313 333 336 313 336 316 337 338 339 337 339 340 319 338 337 319 337 299 318 339 338 318 338 319 298 340 339 298 339 318 299 337 340 299 340 298 341 342 343 341 343 344 323 342 341 323 341 303 322 343 342 322 342 323 302 344 343 302 343 322 303 341 344 303 344 302 345 346 347 345 347 348 327 346 345 327 345 307 326 347 346 326 346 327 306 348 347 306 347 326 307 345 348 307 348 306 349 350 351 349 351 352 331 350 349 331 349 311 330 351 350 330 350 331 310 352 351 310 351 330 311 349 352 311 352 310 353 354 355 353 355 356 335 354 353 335 353 315 334 355 354 334 354 335 314 356 355 314 355 334 315 353 356 315 356 314 287 295 361 287 361 357 293 291 359 293 359 360 289 287 357 289 357 358 295 293 360 295 360 361 361 360 365 361 365 366 359 358 363 359 363 364 357 361 366 357 366 362 360 359 364 360 364 365 358 357 362 358 362 363 371 376 372 371 372 367 370 375 376 370 376 371 369 374 375 369 375 370 368 373 374 368 374 369 367 372 373 367 373 368 386 384 453 386 453 454 380 379 387 380 387 389 381 380 389 381 389 391 378 377 383 378 383 385 379 378 385 379 385 387 382 384 385 382 385 383 384 386 387 384 387 385 386 388 389 386 389 387 388 390 391 388 391 389 390 382 383 390 383 391 377 381 391 377 391 383 381 393 392 381 392 376 377 394 393 377 393 381 372 395 394 372 394 377 376 392 395 376 395 372 379 397 396 379 396 374 380 398 397 380 397 379 375 399 398 375 398 380 374 396 399 374 399 375 380 401 400 380 400 375 381 402 401 381 401 380 376 403 402 376 402 381 375 400 403 375 403 376 377 405 404 377 404 372 378 406 405 378 405 377 373 407 406 373 406 378 372 404 407 372 407 373 378 409 408 378 408 373 379 410 409 379 409 378 374 411 410 374 410 379 373 408 411 373 411 374 412 413 414 412 414 415 393 413 412 393 412 392 395 415 414 395 414 394 392 412 415 392 415 395 416 417 418 416 418 419 397 417 416 397 416 396 399 419 418 399 418 398 396 416 419 396 419 399 420 421 422 420 422 423 401 421 420 401 420 400 403 423 422 403 422 402 400 420 423 400 423 403 424 425 426 424 426 427 405 425 424 405 424 404 407 427 426 407 426 406 404 424 427 404 427 407 428 429 430 428 430 431 409 429 428 409 428 408 411 431 430 411 430 410 408 428 431 408 431 411 432 433 434 432 434 435 414 433 432 414 432 394 413 434 433 413 433 414 393 435 434 393 434 413 394 432 435 394 435 393 436 437 438 436 438 439 418 437 436 418 436 398 417 438 437 417 437 418 397 439 438 397 438 417 398 436 439 398 439 397 440 441 442 440 442 443 422 441 440 422 440 402 421 442 441 421 441 422 401 443 442 401 442 421 402 440 443 402 443 401 444 445 446 444 446 447 426 445 444 426 444 406 425 446 445 425 445 426 405 447 446 405 446 425 406 444 447 406 447 405 448 449 450 448 450 451 430 449 448 430 448 410 429 450 449 429 449 430 409 451 450 409 450 429 410 448 451 410 451 409 382 390 456 382 456 452 388 386 454 388 454 455 384 382 452 384 452 453 390 388 455 390 455 456 452 456 461 452 461 457 455 454 459 455 459 460 453 452 457 453 457 458 456 455 460 456 460 461 454 453 458 454 458 459 466 471 467 466 467 462 465 470 471 465 471 466 464 469 470 464 470 465 463 468 469 463 469 464 462 467 468 462 468 463 481 479 548 481 548 549 475 474 482 475 482 484 476 475 484 476 484 486 473 472 478 473 478 480 474 473 480 474 480 482 477 479 480 477 480 478 479 481 482 479 482 480 481 483 484 481 484 482 483 485 486 483 486 484 485 477 478 485 478 486 472 476 486 472 486 478 476 488 487 476 487 471 472 489 488 472 488 476 467 490 489 467 489 472 471 487 490 471 490 467 474 492 491 474 491 469 475 493 492 475 492 474 470 494 493 470 493 475 469 491 494 469 494 470 475 496 495 475 495 470 476 497 496 476 496 475 471 498 497 471 497 476 470 495 498 470 498 471 472 500 499 472 499 467 473 501 500 473 500 472 468 502 501 468 501 473 467 499 502 467 502 468 473 504 503 473 503 468 474 505 504 474 504 473 469 506 505 469 505 474 468 503 506 468 506 469 507 508 509 507 509 510 488 508 507 488 507 487 490 510 509 490 509 489 487 507 510 487 510 490 511 512 513 511 513 514 492 512 511 492 511 491 494 514 513 494 513 493 491 511 514 491 514 494 515 516 517 515 517 518 496 516 515 496 515 495 498 518 517 498 517 497 495 515 518 495 518 498 519 520 521 519 521 522 500 520 519 500 519 499 502 522 521 502 521 501 499 519 522 499 522 502 523 524 525 523 525 526 504 524 523 504 523 503 506 526 525 506 525 505 503 523 526 503 526 506 527 528 529 527 529 530 509 528 527 509 527 489 508 529 528 508 528 509 488 530 529 488 529 508 489 527 530 489 530 488 531 532 533 531 533 534 513 532 531 513 531 493 512 533 532 512 532 513 492 534 533 492 533 512 493 531 534 493 534 492 535 536 537 535 537 538 517 536 535 517 535 497 516 537 536 516 536 517 496 538 537 496 537 516 497 535 538 497 538 496 539 540 541 539 541 542 521 540 539 521 539 501 520 541 540 520 540 521 500 542 541 500 541 520 501 539 542 501 542 500 543 544 545 543 545 546 525 544 543 525 543 505 524 545 544 524 544 525 504 546 545 504 545 524 505 543 546 505 546 504 477 485 551 477 551 547 483 481 549 483 549 550 479 477 547 479 547 548 485 483 550 485 550 551 549 548 553 549 553 554 547 551 556 547 556 552 550 549 554 550 554 555 548 547 552 548 552 553 551 550 555 551 555 556 552 556 561 552 561 557 555 554 559 555 559 560 553 552 557 553 557 558 556 555 560 556 560 561 554 553 558 554 558 559 566 571 567 566 567 562 565 570 571 565 571 566 564 569 570 564 570 565 563 568 569 563 569 564 562 567 568 562 568 563 581 579 648 581 648 649 575 574 582 575 582 584 576 575 584 576 584 586 573 572 578 573 578 580 574 573 580 574 580 582 577 579 580 577 580 578 579 581 582 579 582 580 581 583 584 581 584 582 583 585 586 583 586 584 585 577 578 585 578 586 572 576 586 572 586 578 576 588 587 576 587 571 572 589 588 572 588 576 567 590 589 567 589 572 571 587 590 571 590 567 574 592 591 574 591 569 575 593 592 575 592 574 570 594 593 570 593 575 569 591 594 569 594 570 575 596 595 575 595 570 576 597 596 576 596 575 571 598 597 571 597 576 570 595 598 570 598 571 572 600 599 572 599 567 573 601 600 573 600 572 568 602 601 568 601 573 567 599 602 567 602 568 573 604 603 573 603 568 574 605 604 574 604 573 569 606 605 569 605 574 568 603 606 568 606 569 607 608 609 607 609 610 588 608 607 588 607 587 590 610 609 590 609 589 587 607 610 587 610 590 611 612 613 611 613 614 592 612 611 592 611 591 594 614 613 594 613 593 591 611 614 591 614 594 615 616 617 615 617 618 596 616 615 596 615 595 598 618 617 598 617 597 595 615 618 595 618 598 619 620 621 619 621 622 600 620 619 600 619 599 602 622 621 602 621 601 599 619 622 599 622 602 623 624 625 623 625 626 604 624 623 604 623 603 606 626 625 606 625 605 603 623 626 603 626 606 627 628 629 627 629 630 609 628 627 609 627 589 608 629 628 608 628 609 588 630 629 588 629 608 589 627 630 589 630 588 631 632 633 631 633 634 613 632 631 613 631 593 612 633 632 612 632 613 592 634 633 592 633 612 593 631 634 593 634 592 635 636 637 635 637 638 617 636 635 617 635 597 616 637 636 616 636 617 596 638 637 596 637 616 597 635 638 597 638 596 639 640 641 639 641 642 621 640 639 621 639 601 620 641 640 620 640 621 600 642 641 600 641 620 601 639 642 601 642 600 643 644 645 643 645 646 625 644 643 625 643 605 624 645 644 624 644 625 604 646 645 604 645 624 605 643 646 605 646 604 577 585 651 577 651 647 583 581 649 583 649 650 579 577 647 579 647 648 585 583 650 585 650 651 651 650 655 651 655 656 649 648 653 649 653 654 647 651 656 647 656 652 650 649 654 650 654 655 648 647 652 648 652 653 652 656 661 652 661 657 655 654 659 655 659 660 653 652 657 653 657 658 656 655 660 656 660 661 654 653 658 654 658 659 666 671 667 666 667 662 665 670 671 665 671 666 664 669 670 664 670 665 663 668 669 663 669 664 662 667 668 662 668 663 681 679 748 681 748 749 675 674 682 675 682 684 676 675 684 676 684 686 673 672 678 673 678 680 674 673 680 674 680 682 677 679 680 677 680 678 679 681 682 679 682 680 681 683 684 681 684 682 683 685 686 683 686 684 685 677 678 685 678 686 672 676 686 672 686 678 676 688 687 676 687 671 672 689 688 672 688 676 667 690 689 667 689 672 671 687 690 671 690 667 674 692 691 674 691 669 675 693 692 675 692 674 670 694 693 670 693 675 669 691 694 669 694 670 675 696 695 675 695 670 676 697 696 676 696 675 671 698 697 671 697 676 670 695 698 670 698 671 672 700 699 672 699 667 673 701 700 673 700 672 668 702 701 668 701 673 667 699 702 667 702 668 673 704 703 673 703 668 674 705 704 674 704 673 669 706 705 669 705 674 668 703 706 668 706 669 707 708 709 707 709 710 688 708 707 688 707 687 690 710 709 690 709 689 687 707 710 687 710 690 711 712 713 711 713 714 692 712 711 692 711 691 694 714 713 694 713 693 691 711 714 691 714 694 715 716 717 715 717 718 696 716 715 696 715 695 698 718 717 698 717 697 695 715 718 695 718 698 719 720 721 719 721 722 700 720 719 700 719 699 702 722 721 702 721 701 699 719 722 699 722 702 723 724 725 723 725 726 704 724 723 704 723 703 706 726 725 706 725 705 703 723 726 703 726 706 727 728 729 727 729 730 709 728 727 709 727 689 708 729 728 708 728 709 688 730 729 688 729 708 689 727 730 689 730 688 731 732 733 731 733 734 713 732 731 713 731 693 712 733 732 712 732 713 692 734 733 692 733 712 693 731 734 693 734 692 735 736 737 735 737 738 717 736 735 717 735 697 716 737 736 716 736 717 696 738 737 696 737 716 697 735 738 697 738 696 739 740 741 739 741 742 721 740 739 721 739 701 720 741 740 720 740 721 700 742 741 700 741 720 701 739 742 701 742 700 743 744 745 743 745 746 725 744 743 725 743 705 724 745 744 724 744 725 704 746 745 704 745 724 705 743 746 705 746 704 677 685 751 677 751 747 683 681 749 683 749 750 679 677 747 679 747 748 685 683 750 685 750 751 747 751 756 747 756 752 750 749 754 750 754 755 748 747 752 748 752 753 751 750 755 751 755 756 749 748 753 749 753 754 753 752 757 753 757 758 756 755 760 756 760 761 754 753 758 754 758 759 752 756 761 752 761 757 755 754 759 755 759 760 759 758 763 759 763 764 757 761 766 757 766 762 760 759 764 760 764 765 758 757 762 758 762 763 761 760 765 761 765 766 771 776 772 771 772 767 770 775 776 770 776 771 769 774 775 769 775 770 768 773 774 768 774 769 767 772 773 767 773 768 786 784 853 786 853 854 780 779 787 780 787 789 781 780 789 781 789 791 778 777 783 778 783 785 779 778 785 779 785 787 782 784 785 782 785 783 784 786 787 784 787 785 786 788 789 786 789 787 788 790 791 788 791 789 790 782 783 790 783 791 777 781 791 777 791 783 781 793 792 781 792 776 777 794 793 777 793 781 772 795 794 772 794 777 776 792 795 776 795 772 779 797 796 779 796 774 780 798 797 780 797 779 775 799 798 775 798 780 774 796 799 774 799 775 780 801 800 780 800 775 781 802 801 781 801 780 776 803 802 776 802 781 775 800 803 775 803 776 777 805 804 777 804 772 778 806 805 778 805 777 773 807 806 773 806 778 772 804 807 772 807 773 778 809 808 778 808 773 779 810 809 779 809 778 774 811 810 774 810 779 773 808 811 773 811 774 812 813 814 812 814 815 793 813 812 793 812 792 795 815 814 795 814 794 792 812 815 792 815 795 816 817 818 816 818 819 797 817 816 797 816 796 799 819 818 799 818 798 796 816 819 796 819 799 820 821 822 820 822 823 801 821 820 801 820 800 803 823 822 803 822 802 800 820 823 800 823 803 824 825 826 824 826 827 805 825 824 805 824 804 807 827 826 807 826 806 804 824 827 804 827 807 828 829 830 828 830 831 809 829 828 809 828 808 811 831 830 811 830 810 808 828 831 808 831 811 832 833 834 832 834 835 814 833 832 814 832 794 813 834 833 813 833 814 793 835 834 793 834 813 794 832 835 794 835 793 836 837 838 836 838 839 818 837 836 818 836 798 817 838 837 817 837 818 797 839 838 797 838 817 798 836 839 798 839 797 840 841 842 840 842 843 822 841 840 822 840 802 821 842 841 821 841 822 801 843 842 801 842 821 802 840 843 802 843 801 844 845 846 844 846 847 826 845 844 826 844 806 825 846 845 825 845 826 805 847 846 805 846 825 806 844 847 806 847 805 848 849 850 848 850 851 830 849 848 830 848 810 829 850 849 829 849 830 809 851 850 809 850 829 810 848 851 810 851 809 782 790 856 782 856 852 788 786 854 788 854 855 784 782 852 784 852 853 790 788 855 790 855 856 854 853 858 854 858 859 852 856 861 852 861 857 855 854 859 855 859 860 853 852 857 853 857 858 856 855 860 856 860 861 857 861 866 857 866 862 860 859 864 860 864 865 858 857 862 858 862 863 861 860 865 861 865 866 859 858 863 859 863 864 871 876 872 871 872 867 870 875 876 870 876 871 869 874 875 869 875 870 868 873 874 868 874 869 867 872 873 867 873 868 886 884 953 886 953 954 880 879 887 880 887 889 881 880 889 881 889 891 878 877 883 878 883 885 879 878 885 879 885 887 882 884 885 882 885 883 884 886 887 884 887 885 886 888 889 886 889 887 888 890 891 888 891 889 890 882 883 890 883 891 877 881 891 877 891 883 881 893 892 881 892 876 877 894 893 877 893 881 872 895 894 872 894 877 876 892 895 876 895 872 879 897 896 879 896 874 880 898 897 880 897 879 875 899 898 875 898 880 874 896 899 874 899 875 880 901 900 880 900 875 881 902 901 881 901 880 876 903 902 876 902 881 875 900 903 875 903 876 877 905 904 877 904 872 878 906 905 878 905 877 873 907 906 873 906 878 872 904 907 872 907 873 878 909 908 878 908 873 879 910 909 879 909 878 874 911 910 874 910 879 873 908 911 873 911 874 912 913 914 912 914 915 893 913 912 893 912 892 895 915 914 895 914 894 892 912 915 892 915 895 916 917 918 916 918 919 897 917 916 897 916 896 899 919 918 899 918 898 896 916 919 896 919 899 920 921 922 920 922 923 901 921 920 901 920 900 903 923 922 903 922 902 900 920 923 900 923 903 924 925 926 924 926 927 905 925 924 905 924 904 907 927 926 907 926 906 904 924 927 904 927 907 928 929 930 928 930 931 909 929 928 909 928 908 911 931 930 911 930 910 908 928 931 908 931 911 932 933 934 932 934 935 914 933 932 914 932 894 913 934 933 913 933 914 893 935 934 893 934 913 894 932 935 894 935 893 936 937 938 936 938 939 918 937 936 918 936 898 917 938 937 917 937 918 897 939 938 897 938 917 898 936 939 898 939 897 940 941 942 940 942 943 922 941 940 922 940 902 921 942 941 921 941 922 901 943 942 901 942 921 902 940 943 902 943 901 944 945 946 944 946 947 926 945 944 926 944 906 925 946 945 925 945 926 905 947 946 905 946 925 906 944 947 906 947 905 948 949 950 948 950 951 930 949 948 930 948 910 929 950 949 929 949 930 909 951 950 909 950 929 910 948 951 910 951 909 882 890 956 882 956 952 888 886 954 888 954 955 884 882 952 884 952 953 890 888 955 890 955 956 955 954 959 955 959 960 953 952 957 953 957 958 956 955 960 956 960 961 954 953 958 954 958 959 952 956 961 952 961 957 961 960 965 961 965 966 959 958 963 959 963 964 957 961 966 957 966 962 960 959 964 960 964 965 958 957 962 958 962 963 962 966 971 962 971 967 965 964 969 965 969 970 963 962 967 963 967 968 966 965 970 966 970 971 964 963 968 964 968 969 971 970 975 971 975 976 969 968 973 969 973 974 967 971 976 967 976 972 970 969 974 970 974 975 968 967 972 968 972 973 981 986 982 981 982 977 980 985 986 980 986 981 979 984 985 979 985 980 978 983 984 978 984 979 977 982 983 977 983 978 996 994 1063 996 1063 1064 990 989 997 990 997 999 991 990 999 991 999 1001 988 987 993 988 993 995 989 988 995 989 995 997 992 994 995 992 995 993 994 996 997 994 997 995 996 998 999 996 999 997 998 1000 1001 998 1001 999 1000 992 993 1000 993 1001 987 991 1001 987 1001 993 991 1003 1002 991 1002 986 987 1004 1003 987 1003 991 982 1005 1004 982 1004 987 986 1002 1005 986 1005 982 989 1007 1006 989 1006 984 990 1008 1007 990 1007 989 985 1009 1008 985 1008 990 984 1006 1009 984 1009 985 990 1011 1010 990 1010 985 991 1012 1011 991 1011 990 986 1013 1012 986 1012 991 985 1010 1013 985 1013 986 987 1015 1014 987 1014 982 988 1016 1015 988 1015 987 983 1017 1016 983 1016 988 982 1014 1017 982 1017 983 988 1019 1018 988 1018 983 989 1020 1019 989 1019 988 984 1021 1020 984 1020 989 983 1018 1021 983 1021 984 1022 1023 1024 1022 1024 1025 1003 1023 1022 1003 1022 1002 1005 1025 1024 1005 1024 1004 1002 1022 1025 1002 1025 1005 1026 1027 1028 1026 1028 1029 1007 1027 1026 1007 1026 1006 1009 1029 1028 1009 1028 1008 1006 1026 1029 1006 1029 1009 1030 1031 1032 1030 1032 1033 1011 1031 1030 1011 1030 1010 1013 1033 1032 1013 1032 1012 1010 1030 1033 1010 1033 1013 1034 1035 1036 1034 1036 1037 1015 1035 1034 1015 1034 1014 1017 1037 1036 1017 1036 1016 1014 1034 1037 1014 1037 1017 1038 1039 1040 1038 1040 1041 1019 1039 1038 1019 1038 1018 1021 1041 1040 1021 1040 1020 1018 1038 1041 1018 1041 1021 1042 1043 1044 1042 1044 1045 1024 1043 1042 1024 1042 1004 1023 1044 1043 1023 1043 1024 1003 1045 1044 1003 1044 1023 1004 1042 1045 1004 1045 1003 1046 1047 1048 1046 1048 1049 1028 1047 1046 1028 1046 1008 1027 1048 1047 1027 1047 1028 1007 1049 1048 1007 1048 1027 1008 1046 1049 1008 1049 1007 1050 1051 1052 1050 1052 1053 1032 1051 1050 1032 1050 1012 1031 1052 1051 1031 1051 1032 1011 1053 1052 1011 1052 1031 1012 1050 1053 1012 1053 1011 1054 1055 1056 1054 1056 1057 1036 1055 1054 1036 1054 1016 1035 1056 1055 1035 1055 1036 1015 1057 1056 1015 1056 1035 1016 1054 1057 1016 1057 1015 1058 1059 1060 1058 1060 1061 1040 1059 1058 1040 1058 1020 1039 1060 1059 1039 1059 1040 1019 1061 1060 1019 1060 1039 1020 1058 1061 1020 1061 1019 992 1000 1066 992 1066 1062 998 996 1064 998 1064 1065 994 992 1062 994 1062 1063 1000 998 1065 1000 1065 1066 1062 1066 1071 1062 1071 1067 1065 1064 1069 1065 1069 1070 1066 1065 1070 1066 1070 1071 1064 1063 1068 1064 1068 1069 1067 1071 1076 1067 1076 1072 1070 1069 1074 1070 1074 1075 1071 1070 1075 1071 1075 1076 1069 1068 1073 1069 1073 1074 1076 1075 1080 1076 1080 1081 1074 1073 1078 1074 1078 1079 1072 1076 1081 1072 1081 1077 1075 1074 1079 1075 1079 1080 1086 1091 1087 1086 1087 1082 1085 1090 1091 1085 1091 1086 1084 1089 1090 1084 1090 1085 1083 1088 1089 1083 1089 1084 1082 1087 1088 1082 1088 1083 1101 1099 1168 1101 1168 1169 1095 1094 1102 1095 1102 1104 1096 1095 1104 1096 1104 1106 1093 1092 1098 1093 1098 1100 1094 1093 1100 1094 1100 1102 1097 1099 1100 1097 1100 1098 1099 1101 1102 1099 1102 1100 1101 1103 1104 1101 1104 1102 1103 1105 1106 1103 1106 1104 1105 1097 1098 1105 1098 1106 1092 1096 1106 1092 1106 1098 1096 1108 1107 1096 1107 1091 1092 1109 1108 1092 1108 1096 1087 1110 1109 1087 1109 1092 1091 1107 1110 1091 1110 1087 1094 1112 1111 1094 1111 1089 1095 1113 1112 1095 1112 1094 1090 1114 1113 1090 1113 1095 1089 1111 1114 1089 1114 1090 1095 1116 1115 1095 1115 1090 1096 1117 1116 1096 1116 1095 1091 1118 1117 1091 1117 1096 1090 1115 1118 1090 1118 1091 1092 1120 1119 1092 1119 1087 1093 1121 1120 1093 1120 1092 1088 1122 1121 1088 1121 1093 1087 1119 1122 1087 1122 1088 1093 1124 1123 1093 1123 1088 1094 1125 1124 1094 1124 1093 1089 1126 1125 1089 1125 1094 1088 1123 1126 1088 1126 1089 1127 1128 1129 1127 1129 1130 1108 1128 1127 1108 1127 1107 1110 1130 1129 1110 1129 1109 1107 1127 1130 1107 1130 1110 1131 1132 1133 1131 1133 1134 1112 1132 1131 1112 1131 1111 1114 1134 1133 1114 1133 1113 1111 1131 1134 1111 1134 1114 1135 1136 1137 1135 1137 1138 1116 1136 1135 1116 1135 1115 1118 1138 1137 1118 1137 1117 1115 1135 1138 1115 1138 1118 1139 1140 1141 1139 1141 1142 1120 1140 1139 1120 1139 1119 1122 1142 1141 1122 1141 1121 1119 1139 1142 1119 1142 1122 1143 1144 1145 1143 1145 1146 1124 1144 1143 1124 1143 1123 1126 1146 1145 1126 1145 1125 1123 1143 1146 1123 1146 1126 1147 1148 1149 1147 1149 1150 1129 1148 1147 1129 1147 1109 1128 1149 1148 1128 1148 1129 1108 1150 1149 1108 1149 1128 1109 1147 1150 1109 1150 1108 1151 1152 1153 1151 1153 1154 1133 1152 1151 1133 1151 1113 1132 1153 1152 1132 1152 1133 1112 1154 1153 1112 1153 1132 1113 1151 1154 1113 1154 1112 1155 1156 1157 1155 1157 1158 1137 1156 1155 1137 1155 1117 1136 1157 1156 1136 1156 1137 1116 1158 1157 1116 1157 1136 1117 1155 1158 1117 1158 1116 1159 1160 1161 1159 1161 1162 1141 1160 1159 1141 1159 1121 1140 1161 1160 1140 1160 1141 1120 1162 1161 1120 1161 1140 1121 1159 1162 1121 1162 1120 1163 1164 1165 1163 1165 1166 1145 1164 1163 1145 1163 1125 1144 1165 1164 1144 1164 1145 1124 1166 1165 1124 1165 1144 1125 1163 1166 1125 1166 1124 1097 1105 1171 1097 1171 1167 1103 1101 1169 1103 1169 1170 1099 1097 1167 1099 1167 1168 1105 1103 1170 1105 1170 1171 1169 1168 1173 1169 1173 1174 1167 1171 1176 1167 1176 1172 1170 1169 1174 1170 1174 1175 1168 1167 1172 1168 1172 1173 1171 1170 1175 1171 1175 1176 1181 1186 1182 1181 1182 1177 1180 1185 1186 1180 1186 1181 1179 1184 1185 1179 1185 1180 1178 1183 1184 1178 1184 1179 1177 1182 1183 1177 1183 1178 1196 1194 1263 1196 1263 1264 1190 1189 1197 1190 1197 1199 1191 1190 1199 1191 1199 1201 1188 1187 1193 1188 1193 1195 1189 1188 1195 1189 1195 1197 1192 1194 1195 1192 1195 1193 1194 1196 1197 1194 1197 1195 1196 1198 1199 1196 1199 1197 1198 1200 1201 1198 1201 1199 1200 1192 1193 1200 1193 1201 1187 1191 1201 1187 1201 1193 1191 1203 1202 1191 1202 1186 1187 1204 1203 1187 1203 1191 1182 1205 1204 1182 1204 1187 1186 1202 1205 1186 1205 1182 1189 1207 1206 1189 1206 1184 1190 1208 1207 1190 1207 1189 1185 1209 1208 1185 1208 1190 1184 1206 1209 1184 1209 1185 1190 1211 1210 1190 1210 1185 1191 1212 1211 1191 1211 1190 1186 1213 1212 1186 1212 1191 1185 1210 1213 1185 1213 1186 1187 1215 1214 1187 1214 1182 1188 1216 1215 1188 1215 1187 1183 1217 1216 1183 1216 1188 1182 1214 1217 1182 1217 1183 1188 1219 1218 1188 1218 1183 1189 1220 1219 1189 1219 1188 1184 1221 1220 1184 1220 1189 1183 1218 1221 1183 1221 1184 1222 1223 1224 1222 1224 1225 1203 1223 1222 1203 1222 1202 1205 1225 1224 1205 1224 1204 1202 1222 1225 1202 1225 1205 1226 1227 1228 1226 1228 1229 1207 1227 1226 1207 1226 1206 1209 1229 1228 1209 1228 1208 1206 1226 1229 1206 1229 1209 1230 1231 1232 1230 1232 1233 1211 1231 1230 1211 1230 1210 1213 1233 1232 1213 1232 1212 1210 1230 1233 1210 1233 1213 1234 1235 1236 1234 1236 1237 1215 1235 1234 1215 1234 1214 1217 1237 1236 1217 1236 1216 1214 1234 1237 1214 1237 1217 1238 1239 1240 1238 1240 1241 1219 1239 1238 1219 1238 1218 1221 1241 1240 1221 1240 1220 1218 1238 1241 1218 1241 1221 1242 1243 1244 1242 1244 1245 1224 1243 1242 1224 1242 1204 1223 1244 1243 1223 1243 1224 1203 1245 1244 1203 1244 1223 1204 1242 1245 1204 1245 1203 1246 1247 1248 1246 1248 1249 1228 1247 1246 1228 1246 1208 1227 1248 1247 1227 1247 1228 1207 1249 1248 1207 1248 1227 1208 1246 1249 1208 1249 1207 1250 1251 1252 1250 1252 1253 1232 1251 1250 1232 1250 1212 1231 1252 1251 1231 1251 1232 1211 1253 1252 1211 1252 1231 1212 1250 1253 1212 1253 1211 1254 1255 1256 1254 1256 1257 1236 1255 1254 1236 1254 1216 1235 1256 1255 1235 1255 1236 1215 1257 1256 1215 1256 1235 1216 1254 1257 1216 1257 1215 1258 1259 1260 1258 1260 1261 1240 1259 1258 1240 1258 1220 1239 1260 1259 1239 1259 1240 1219 1261 1260 1219 1260 1239 1220 1258 1261 1220 1261 1219 1192 1200 1266 1192 1266 1262 1198 1196 1264 1198 1264 1265 1194 1192 1262 1194 1262 1263 1200 1198 1265 1200 1265 1266 1262 1266 1271 1262 1271 1267 1265 1264 1269 1265 1269 1270 1263 1262 1267 1263 1267 1268 1266 1265 1270 1266 1270 1271 1264 1263 1268 1264 1268 1269 1271 1270 1275 1271 1275 1276 1269 1268 1273 1269 1273 1274 1267 1271 1276 1267 1276 1272 1270 1269 1274 1270 1274 1275 1268 1267 1272 1268 1272 1273 1272 1276 1281 1272 1281 1277 1275 1274 1279 1275 1279 1280 1273 1272 1277 1273 1277 1278 1276 1275 1280 1276 1280 1281 1274 1273 1278 1274 1278 1279</p>
        </triangles>
      </mesh>
    </geometry>
  </library_geometries>
  <library_visual_scenes><visual_scene id="Scene" name="Scene">
    <node id="stems" name="stems" type="NODE">
      <instance_geometry url="#stems-mesh"/>
    </node>
  </visual_scene></library_visual_scenes>
  <scene><instance_visual_scene url="#Scene"/></scene>
</COLLADA>